<svg width="20" height="16" viewBox="0 0 20 16" fill="none" xmlns="http://www.w3.org/2000/svg">
<path d="M16.9308 1.74315C15.6558 1.16815 14.2892 0.743149 12.86 0.501482C12.8473 0.499039 12.8341 0.500613 12.8223 0.505988C12.8105 0.511363 12.8007 0.520272 12.7942 0.531482C12.6192 0.838982 12.4242 1.23982 12.2875 1.55648C10.7718 1.33001 9.23076 1.33001 7.715 1.55648C7.56278 1.20553 7.39113 0.863335 7.20084 0.531482C7.19439 0.520134 7.18463 0.511023 7.17287 0.505365C7.1611 0.499707 7.1479 0.497771 7.135 0.499815C5.70667 0.741482 4.34 1.16648 3.06417 1.74232C3.05319 1.74692 3.04389 1.75477 3.0375 1.76482C0.444171 5.57731 -0.266663 9.29565 0.0825038 12.9673C0.0834754 12.9763 0.0862667 12.985 0.0907079 12.9929C0.0951491 13.0008 0.101147 13.0077 0.108337 13.0131C1.622 14.1152 3.31028 14.9547 5.1025 15.4965C5.115 15.5003 5.12836 15.5003 5.14085 15.4965C5.15334 15.4926 5.16437 15.485 5.1725 15.4748C5.5575 14.9581 5.90084 14.4123 6.19417 13.839C6.21167 13.8056 6.195 13.7656 6.16 13.7523C5.62167 13.5496 5.10007 13.3049 4.6 13.0206C4.59102 13.0155 4.58345 13.0082 4.57797 12.9995C4.57249 12.9907 4.56928 12.9807 4.56861 12.9704C4.56795 12.96 4.56987 12.9497 4.57418 12.9403C4.5785 12.9309 4.58508 12.9227 4.59334 12.9165C4.69834 12.839 4.80334 12.7581 4.90334 12.6773C4.91234 12.67 4.92318 12.6654 4.93466 12.6639C4.94613 12.6625 4.95779 12.6642 4.96834 12.669C8.24084 14.139 11.785 14.139 15.0192 12.669C15.0297 12.6639 15.0415 12.662 15.0532 12.6633C15.0648 12.6646 15.0758 12.6692 15.085 12.6765C15.185 12.7581 15.2892 12.839 15.395 12.9165C15.4033 12.9226 15.41 12.9307 15.4145 12.94C15.4189 12.9493 15.421 12.9596 15.4205 12.9699C15.42 12.9802 15.417 12.9903 15.4116 12.9991C15.4063 13.008 15.3989 13.0154 15.39 13.0206C14.8917 13.3073 14.3733 13.5498 13.8292 13.7515C13.8208 13.7545 13.8132 13.7593 13.8068 13.7655C13.8005 13.7717 13.7955 13.7792 13.7923 13.7875C13.789 13.7958 13.7876 13.8047 13.7881 13.8135C13.7886 13.8224 13.7909 13.8311 13.795 13.839C14.095 14.4115 14.4383 14.9565 14.8158 15.474C14.8237 15.4846 14.8346 15.4925 14.8471 15.4967C14.8597 15.5009 14.8732 15.5011 14.8858 15.4973C16.6811 14.957 18.3722 14.1171 19.8875 13.0131C19.8949 13.008 19.9011 13.0013 19.9057 12.9935C19.9103 12.9858 19.9132 12.9771 19.9142 12.9681C20.3308 8.72315 19.2158 5.03481 16.9567 1.76648C16.9511 1.75586 16.942 1.74758 16.9308 1.74315ZM6.68334 10.7315C5.69834 10.7315 4.88584 9.84065 4.88584 8.74815C4.88584 7.65481 5.6825 6.76481 6.68334 6.76481C7.69167 6.76481 8.49667 7.66231 8.48084 8.74815C8.48084 9.84148 7.68417 10.7315 6.68334 10.7315ZM13.3292 10.7315C12.3433 10.7315 11.5317 9.84065 11.5317 8.74815C11.5317 7.65481 12.3275 6.76481 13.3292 6.76481C14.3375 6.76481 15.1425 7.66231 15.1267 8.74815C15.1267 9.84148 14.3383 10.7315 13.3292 10.7315Z" fill="white"/>
</svg>
