<svg width="119" height="14" viewBox="0 0 119 14" fill="none" xmlns="http://www.w3.org/2000/svg">
<path d="M0 14L2.436 0.175999H15.108L17.952 3.632L16.128 14H11.52L13.344 3.632L12.396 2.48H6.636L4.608 14H0ZM31.3759 7.088L32.1799 2.48H26.4199L25.0639 3.632L24.4639 7.088H31.3759ZM18.6319 14L20.4559 3.632L24.5239 0.175999H37.1959L34.7599 14H30.1519L30.9679 9.392H24.0559L23.2399 14H18.6319ZM37.2637 14L39.6997 0.175999H44.3077L43.4917 4.784H48.0997L51.2197 0.175999H55.8277L55.4197 2.48H54.2677L52.7077 4.784H55.0117L53.3917 14H48.7837L50.0077 7.088H43.0957L41.8717 14H37.2637ZM68.6396 7.088L69.4436 2.48H63.6836L62.3276 3.632L61.7276 7.088H68.6396ZM55.8956 14L57.7196 3.632L61.7876 0.175999H74.4596L72.0236 14H67.4156L68.2316 9.392H61.3196L60.5036 14H55.8956ZM74.5275 14L74.9355 11.696H85.3035L86.6595 10.544L86.8635 9.392H75.3435L76.3515 3.632L80.4195 0.175999H93.0915L92.2755 4.784H87.6675L88.0755 2.48H82.3155L80.9595 3.632L80.3595 7.088H91.8795L91.2675 10.544L87.1995 14H74.5275ZM93.1594 14L95.5954 0.175999H100.203L99.3874 4.784H106.299L107.115 0.175999H111.723L109.287 14H104.679L105.903 7.088H98.9914L97.7674 14H93.1594ZM111.791 14L114.227 0.175999H118.835L116.399 14H111.791Z" fill="white"/>
</svg>
