<svg width="20" height="20" viewBox="0 0 20 20" fill="none" xmlns="http://www.w3.org/2000/svg">
<path d="M10 0C4.478 0 0 4.478 0 10C0 15.522 4.478 20 10 20C15.522 20 20 15.522 20 10C20 4.478 15.524 0 10 0ZM4.934 10.336L4.976 10.268L7.578 6.198C7.616 6.14 7.706 6.146 7.734 6.21C8.168 7.184 8.544 8.396 8.368 9.15C8.294 9.46 8.088 9.88 7.856 10.268C7.826 10.324 7.794 10.38 7.758 10.434C7.742 10.458 7.714 10.472 7.684 10.472H5.01C4.938 10.472 4.896 10.394 4.934 10.336ZM16.528 11.736C16.528 11.774 16.506 11.806 16.474 11.82C16.272 11.906 15.582 12.224 15.296 12.622C14.564 13.64 14.006 15.096 12.756 15.096H7.544C5.696 15.096 4.2 13.594 4.2 11.74V11.68C4.2 11.632 4.24 11.592 4.29 11.592H7.194C7.252 11.592 7.294 11.644 7.29 11.702C7.268 11.89 7.304 12.084 7.394 12.26C7.566 12.61 7.924 12.828 8.31 12.828H9.748V11.706H8.326C8.254 11.706 8.21 11.622 8.252 11.562C8.268 11.538 8.284 11.514 8.304 11.486C8.438 11.294 8.63 10.998 8.822 10.66C8.952 10.432 9.078 10.188 9.18 9.944C9.2 9.9 9.216 9.854 9.234 9.81C9.262 9.732 9.29 9.658 9.31 9.586C9.33 9.524 9.348 9.46 9.364 9.4C9.412 9.192 9.432 8.972 9.432 8.744C9.432 8.654 9.428 8.56 9.42 8.472C9.416 8.374 9.404 8.276 9.392 8.178C9.384 8.092 9.368 8.006 9.352 7.918C9.33 7.788 9.302 7.658 9.27 7.528L9.258 7.478C9.234 7.388 9.212 7.304 9.184 7.214C9.102 6.934 9.01 6.66 8.91 6.404C8.874 6.302 8.834 6.204 8.792 6.108C8.732 5.96 8.67 5.826 8.614 5.7C8.584 5.642 8.56 5.59 8.536 5.536C8.508 5.476 8.48 5.416 8.45 5.358C8.43 5.314 8.406 5.272 8.39 5.232L8.214 4.908C8.19 4.864 8.23 4.81 8.278 4.824L9.378 5.122H9.382C9.384 5.122 9.384 5.122 9.386 5.122L9.53 5.164L9.69 5.208L9.748 5.224V4.572C9.748 4.256 10 4 10.314 4C10.47 4 10.612 4.064 10.712 4.168C10.814 4.272 10.878 4.414 10.878 4.572V5.542L10.996 5.574C11.004 5.578 11.014 5.582 11.022 5.588C11.05 5.608 11.092 5.64 11.144 5.68C11.186 5.712 11.23 5.752 11.282 5.794C11.388 5.88 11.516 5.99 11.654 6.116C11.69 6.148 11.726 6.18 11.76 6.214C11.938 6.38 12.138 6.574 12.33 6.79C12.384 6.852 12.436 6.912 12.49 6.978C12.542 7.044 12.6 7.108 12.648 7.172C12.714 7.258 12.782 7.348 12.844 7.442C12.872 7.486 12.906 7.532 12.932 7.576C13.012 7.694 13.08 7.816 13.146 7.938C13.174 7.994 13.202 8.056 13.226 8.116C13.3 8.28 13.358 8.446 13.394 8.614C13.406 8.65 13.414 8.688 13.418 8.724V8.732C13.43 8.78 13.434 8.832 13.438 8.886C13.454 9.056 13.446 9.228 13.41 9.4C13.394 9.472 13.374 9.54 13.35 9.614C13.324 9.684 13.3 9.756 13.268 9.826C13.206 9.968 13.134 10.112 13.048 10.244C13.02 10.294 12.986 10.346 12.954 10.396C12.918 10.448 12.88 10.498 12.848 10.546C12.802 10.608 12.754 10.672 12.704 10.73C12.66 10.79 12.616 10.85 12.566 10.904C12.498 10.986 12.432 11.062 12.362 11.136C12.322 11.184 12.278 11.234 12.232 11.278C12.188 11.328 12.142 11.372 12.102 11.412C12.032 11.482 11.976 11.534 11.928 11.58L11.814 11.682C11.798 11.698 11.776 11.706 11.754 11.706H10.878V12.828H11.98C12.226 12.828 12.46 12.742 12.65 12.58C12.714 12.524 12.996 12.28 13.33 11.912C13.342 11.898 13.356 11.89 13.372 11.886L16.414 11.006C16.472 10.99 16.528 11.032 16.528 11.092V11.736Z" fill="white"/>
</svg>
